HIERARCHY
ROOT Hips
{
	OFFSET 0.00000 0.00000 0.00000
	CHANNELS 6 Xposition Yposition Zposition Zrotation Yrotation Xrotation 
	JOINT RightUpLegDummy
	{
		OFFSET 0 0 0
		CHANNELS 3 Zrotation Yrotation Xrotation
		JOINT RightUpLeg
		{
			OFFSET -3.52197 -3.41223 0.04002
			CHANNELS 3 Zrotation Yrotation Xrotation
			JOINT RightLeg
			{
				OFFSET 0.00006 -17.42390 1.60435
				CHANNELS 3 Zrotation Yrotation Xrotation
				JOINT RightFoot
				{
					OFFSET 0.06153 -16.50078 -1.63901
					CHANNELS 3 Zrotation Yrotation Xrotation
					JOINT RightToes
					{
						OFFSET 0.00298 -1.73825 3.34613
						CHANNELS 3 Zrotation Yrotation Xrotation
						End Site
						{
							OFFSET 0.00480 -0.05416 3.85043
						}
					}
				}
			}
		}
	}
	JOINT SpineDummy
	{
		OFFSET 0 0 0
		CHANNELS 3 Zrotation Yrotation Xrotation
		JOINT Spine
		{
			OFFSET 0.00000 4.68130 0.00000
			CHANNELS 3 Zrotation Yrotation Xrotation
			JOINT Spine1
			{
				OFFSET -0.00000 10.10138 0.05002
				CHANNELS 3 Zrotation Yrotation Xrotation
				JOINT HEadDummy
				{
					OFFSET 0 0 0
					CHANNELS 3 Zrotation Yrotation Xrotation
					JOINT Head
					{
						OFFSET -0.00000 3.43865 0.00438
						CHANNELS 3 Zrotation Yrotation Xrotation
						End Site
						{
							OFFSET -0.11417 5.02924 0.98962
						}
					}
				}
				JOINT LeftShoulder1Dummy
				{
					OFFSET 0 0 0
					CHANNELS 3 Zrotation Yrotation Xrotation
					JOINT LeftShoulder1
					{
						OFFSET 3.53937 -0.14262 -0.08662
						CHANNELS 3 Zrotation Yrotation Xrotation
						JOINT LeftArm
						{
							OFFSET 4.04833 -0.00133 0.12681
							CHANNELS 3 Zrotation Yrotation Xrotation
							JOINT LeftForeArm
							{
								OFFSET 10.33880 -0.01036 -0.55515
								CHANNELS 3 Zrotation Yrotation Xrotation
								JOINT LeftHand
								{
									OFFSET 8.69677 0.07543 0.40060
									CHANNELS 3 Zrotation Yrotation Xrotation
									End Site
									{
										OFFSET 5.28377 -0.21905 0.59205
									}
								}
							}
						}
					}
				}
				JOINT RightShoulderDummy
				{
					OFFSET 0 0 0
					CHANNELS 3 Zrotation Yrotation Xrotation
					JOINT RightShoulder
					{
						OFFSET -3.53937 -0.14262 -0.08660
						CHANNELS 3 Zrotation Yrotation Xrotation
						JOINT RightArm
						{
							OFFSET -4.04833 -0.00133 0.12683
							CHANNELS 3 Zrotation Yrotation Xrotation
							JOINT RightForeArm
							{
								OFFSET -10.37987 -0.01039 -0.55511
								CHANNELS 3 Zrotation Yrotation Xrotation
								JOINT RightHand
								{
									OFFSET -8.67398 0.07538 0.40058
									CHANNELS 3 Zrotation Yrotation Xrotation
									End Site
									{
										OFFSET -5.24810 -0.21916 0.59204
									}
								}
							}
						}
					}
				}
			}
		}
	}
	JOINT LeftUpLegDummy
	{
		OFFSET 0 0 0
		CHANNELS 3 Zrotation Yrotation Xrotation
		JOINT LeftUpLeg
		{
			OFFSET 3.52197 -3.41223 0.04002
			CHANNELS 3 Zrotation Yrotation Xrotation
			JOINT LeftLeg
			{
				OFFSET -0.00012 -17.42399 1.60337
				CHANNELS 3 Zrotation Yrotation Xrotation
				JOINT LeftFoot
				{
					OFFSET -0.09972 -16.50070 -1.63802
					CHANNELS 3 Zrotation Yrotation Xrotation
					JOINT LeftToes
					{
						OFFSET -0.01575 -1.73823 3.34611
						CHANNELS 3 Zrotation Yrotation Xrotation
						End Site
						{
							OFFSET 0.03150 -0.01868 3.85031
						}
					}
				}
			}
		}
	}
}
MOTION
Frames: 11
Frame Time: 0.033333
-46.8046 39.8835 79.6302 -179.2940 -1.1785 178.3120 0.0000 0.0000 0.0000 1.4975 -1.4152 2.1314 -1.9803 -5.5488 4.2702 -1.4165 0.0591 -4.5264 0.0000 -0.0000 -0.0000 0.0000 0.0000 0.0000 -1.0748 -0.3264 0.7277 4.3605 -1.1952 2.1969 -0.0000 0.0000 -0.0000 1.9498 1.0511 -5.8550 -0.0000 0.0000 -0.0000 -33.6342 -2.8971 2.5384 -42.5830 -16.2655 -16.4768 -7.5346 4.2069 74.2508 20.5885 -4.5700 -1.7441 -0.0000 0.0000 -0.0000 35.1972 5.1899 3.5839 40.0619 5.3918 -16.3725 10.7723 0.1175 24.9655 -10.2341 2.4533 -0.6733 0.0000 0.0000 0.0000 1.5436 2.0498 1.3663 0.3038 2.0131 5.2613 3.3608 -0.1538 -5.4294 0.0000 0.0000 -0.0000
-46.7815 39.8835 79.6070 -179.2780 -1.0645 178.3480 0.0000 0.0000 0.0000 1.5764 -1.3398 2.1330 -2.0162 -5.4950 4.2447 -1.3386 0.0541 -4.5440 0.0000 -0.0000 -0.0000 0.0000 0.0000 0.0000 -0.9957 -0.3056 0.7681 4.3468 -1.1705 2.0812 -0.0000 0.0000 -0.0000 1.9748 1.1902 -5.8590 -0.0000 0.0000 -0.0000 -33.7629 -2.8928 2.5450 -44.0606 -16.5044 -23.6917 -3.0236 3.9342 81.6823 21.0923 -4.5182 -1.7766 -0.0000 0.0000 -0.0000 34.9658 5.1492 3.5468 40.3105 5.4714 -16.3941 10.7725 -0.0147 25.0049 -10.2298 2.5164 -0.6740 0.0000 0.0000 0.0000 1.5969 2.0739 1.3770 0.3279 2.0984 5.2649 3.2870 -0.1491 -5.4833 0.0000 0.0000 -0.0000
-46.7385 39.8835 79.5693 -179.3190 -0.9684 178.4250 0.0000 0.0000 0.0000 1.6430 -1.2529 2.1078 -2.0925 -5.4966 4.2364 -1.3137 0.0526 -4.5837 0.0000 -0.0000 -0.0000 0.0000 0.0000 0.0000 -0.9250 -0.3372 0.8714 4.2341 -1.1728 1.7976 -0.0000 0.0000 -0.0000 2.0758 1.2681 -5.7528 -0.0000 0.0000 -0.0000 -33.7240 -2.7928 2.5029 -43.8596 -16.4842 -23.3245 -3.0902 3.9073 82.2021 22.4873 -2.4347 -1.5078 -0.0000 0.0000 -0.0000 34.8237 5.1175 3.5213 40.5377 5.5882 -16.4671 10.7687 -0.2893 25.0998 -10.2224 2.5194 -0.6743 0.0000 0.0000 0.0000 1.6215 2.0815 1.4200 0.3428 2.1772 5.1559 3.1879 -0.1427 -5.4835 0.0000 0.0000 -0.0000
-46.6960 39.8835 79.5402 -179.4250 -1.1109 178.4690 0.0000 0.0000 0.0000 1.6174 -1.2613 2.1158 -2.1440 -5.6547 4.2455 -1.3806 0.0571 -4.6283 0.0000 -0.0000 -0.0000 0.0000 0.0000 0.0000 -0.9885 -0.4523 0.9483 4.1425 -1.2671 1.7070 -0.0000 0.0000 -0.0000 2.1526 1.0719 -5.8629 -0.0000 0.0000 -0.0000 -33.4588 -2.7085 2.4528 -43.9966 -16.6346 -23.7227 -2.3637 3.7759 85.2969 23.6927 0.1735 -1.0737 -0.0000 0.0000 -0.0000 35.0805 5.1576 3.5603 40.3891 5.6212 -16.4968 10.7549 -0.3387 25.1976 -10.2428 2.4708 -0.6732 0.0000 0.0000 0.0000 1.5798 2.0497 1.5054 0.3183 2.0633 4.9397 3.1255 -0.1387 -5.3808 0.0000 0.0000 -0.0000
-46.6524 39.8831 79.5150 -179.4850 -1.2715 178.4990 0.0000 0.0000 0.0000 1.5934 -1.3288 2.1429 -2.0897 -5.7502 4.2378 -1.4872 0.0640 -4.6747 0.0000 -0.0000 -0.0000 0.0000 0.0000 0.0000 -1.1150 -0.5300 0.9325 4.2650 -1.3740 1.8969 -0.0000 0.0000 -0.0000 2.0386 0.8900 -6.3452 -0.0000 0.0000 -0.0000 -33.3900 -2.7145 2.4508 -44.2923 -16.6949 -22.9585 -3.2237 3.9044 81.6416 23.8282 -0.0451 -1.0602 -0.0000 0.0000 -0.0000 35.3841 5.2205 3.6131 40.1108 5.5629 -16.3485 10.7696 -0.0508 25.2382 -10.0486 2.7130 -0.6788 0.0000 0.0000 0.0000 1.5902 2.0429 1.5687 0.2949 1.9079 4.7845 3.0235 -0.1322 -5.3214 0.0000 0.0000 -0.0000
-46.5937 39.8799 79.4740 -179.4290 -1.0615 178.6120 0.0000 0.0000 0.0000 1.6982 -1.3238 2.0717 -1.9538 -5.5419 4.2312 -1.6155 0.0725 -4.7349 0.0000 -0.0000 -0.0000 0.0000 0.0000 0.0000 -1.0907 -0.4540 0.8490 4.4843 -1.3455 2.0050 -0.0000 0.0000 -0.0000 1.8003 1.1239 -6.7173 -0.0000 0.0000 -0.0000 -33.7058 -2.7334 2.4781 -45.0834 -16.3318 -18.8547 -8.7461 4.8516 57.8847 20.5899 -7.2137 -2.2384 -0.0000 0.0000 -0.0000 35.3144 5.2244 3.6085 40.1333 5.4838 -16.1187 10.8191 0.2349 25.2333 -9.6486 3.1193 -0.6817 0.0000 0.0000 0.0000 1.7510 2.1247 1.5206 0.3197 2.0166 4.8255 2.8258 -0.1194 -5.4321 0.0000 0.0000 -0.0000
-46.5229 39.8730 79.4183 -179.3410 -0.6355 178.7770 0.0000 0.0000 0.0000 1.8694 -1.2534 1.9303 -1.8324 -5.2117 4.2656 -1.7720 0.0828 -4.8158 0.0000 -0.0000 -0.0000 0.0000 0.0000 0.0000 -0.8792 -0.3368 0.7846 4.4834 -1.2274 1.8537 -0.0000 0.0000 -0.0000 1.7067 1.6466 -6.6577 -0.0000 0.0000 -0.0000 -33.9946 -2.7196 2.4908 -44.9190 -16.0728 -18.3787 -8.7534 4.8295 58.0732 18.1801 -1.6752 -1.0882 -0.0000 0.0000 -0.0000 35.0881 5.1886 3.5737 40.3592 5.4415 -16.0599 10.8459 0.2259 25.2066 -9.6323 2.9760 -0.6692 0.0000 0.0000 0.0000 1.9542 2.2273 1.4176 0.3898 2.3095 4.9723 2.6197 -0.1062 -5.6136 0.0000 0.0000 -0.0000
-46.4555 39.8699 79.3670 -179.3510 -0.5186 178.8430 0.0000 0.0000 0.0000 1.9205 -1.2916 1.9186 -1.7261 -5.1001 4.3001 -1.9529 0.0913 -4.9046 0.0000 -0.0000 -0.0000 0.0000 0.0000 0.0000 -0.7132 -0.3783 0.7564 4.2508 -1.2275 1.7835 -0.0000 0.0000 -0.0000 1.8720 1.8968 -6.4810 -0.0000 0.0000 -0.0000 -33.8668 -2.7373 2.4898 -44.9781 -15.9679 -18.1725 -8.8488 4.8331 57.9336 17.9226 -0.5524 -0.9127 -0.0000 0.0000 -0.0000 35.1150 5.1815 3.5732 40.4222 5.4852 -16.2087 10.8137 0.0557 25.1414 -10.3136 2.1634 -0.6527 0.0000 0.0000 0.0000 2.0169 2.2105 1.4384 0.4915 2.4280 4.9848 2.4344 -0.0943 -5.6789 0.0000 0.0000 -0.0000
-46.3882 39.8732 79.3235 -179.4420 -0.7067 178.8130 0.0000 0.0000 0.0000 1.8630 -1.4463 2.0631 -1.5922 -5.1623 4.2546 -2.1397 0.1013 -4.9706 0.0000 -0.0000 -0.0000 0.0000 0.0000 0.0000 -0.7317 -0.5257 0.6846 4.0913 -1.3557 2.0391 -0.0000 0.0000 -0.0000 2.0825 1.6193 -6.6459 -0.0000 0.0000 -0.0000 -33.5372 -2.7991 2.4935 -45.2003 -16.1196 -18.2274 -8.5665 4.7609 60.0727 18.2374 -1.2999 -1.0430 -0.0000 0.0000 -0.0000 35.2425 5.1947 3.5899 40.3995 5.6167 -16.3298 10.7738 -0.0037 25.0495 -10.9775 1.6310 -0.6505 0.0000 0.0000 0.0000 1.9775 2.0964 1.6168 0.6039 2.3444 4.7700 2.1358 -0.0751 -5.6155 0.0000 0.0000 -0.0000
-46.3024 39.8757 79.2736 -179.4870 -0.6680 178.8730 0.0000 0.0000 0.0000 1.9493 -1.4192 2.1110 -1.5657 -5.1611 4.1818 -2.2784 0.1085 -5.0019 0.0000 -0.0000 -0.0000 0.0000 0.0000 0.0000 -0.7661 -0.5448 0.6014 4.1331 -1.3895 2.2364 -0.0000 0.0000 -0.0000 2.0996 1.1832 -7.0142 -0.0000 0.0000 -0.0000 -33.4644 -2.8079 2.4923 -45.3085 -16.2924 -18.1776 -8.4432 4.7069 61.6013 19.4753 -2.5257 -1.3161 -0.0000 0.0000 -0.0000 35.0883 5.1643 3.5638 40.6142 5.7008 -16.2904 10.7760 0.0666 25.0655 -10.8669 1.9844 -0.6734 0.0000 0.0000 0.0000 2.0699 2.1141 1.7579 0.6243 2.3363 4.5170 1.7628 -0.0511 -5.5633 0.0000 0.0000 -0.0000
-46.1961 39.8696 79.2163 -179.4640 -0.2861 179.0630 0.0000 0.0000 0.0000 2.2940 -1.0222 1.9147 -1.8403 -5.1795 4.2832 -2.3161 0.1085 -5.0546 0.0000 -0.0000 -0.0000 0.0000 0.0000 0.0000 -0.6520 -0.4237 0.7249 4.1858 -1.2686 1.9051 -0.0000 0.0000 -0.0000 1.9522 1.0324 -7.2039 -0.0000 0.0000 -0.0000 -33.7052 -2.7300 2.4767 -45.1200 -16.2358 -18.0636 -8.4710 4.6670 62.6871 21.2401 -3.2963 -1.5727 -0.0000 0.0000 -0.0000 34.8321 5.1124 3.5200 40.8889 5.5674 -16.2281 10.7875 0.1237 25.2913 -10.3677 2.5371 -0.6873 0.0000 0.0000 0.0000 2.3643 2.3789 1.7231 0.4580 2.4261 4.4728 1.6148 -0.0416 -5.6157 0.0000 0.0000 -0.0000
